<?xml version="1.0" encoding="UTF-8"?>
<svg version="1.1" xmlns="http://www.w3.org/2000/svg" width="500" height="500">
<path d="M0 0 C5.06711299 4.24210136 9.81223371 8.67717089 14.46484375 13.3671875 C15.14301651 14.04677521 15.82118927 14.72636292 16.51991272 15.42654419 C18.66149141 17.57367002 20.79954529 19.72426627 22.9375 21.875 C24.39885589 23.34137773 25.86044226 24.8075258 27.32226562 26.2734375 C30.88417935 29.84631 34.44293865 33.42229684 38 37 C36.68 38.65 35.36 40.3 34 42 C31.14220983 40.70280076 29.08991464 39.3363174 26.88378906 37.11083984 C26.30348938 36.5303891 25.7231897 35.94993835 25.12530518 35.35189819 C24.51161072 34.72788116 23.89791626 34.10386414 23.265625 33.4609375 C22.62759949 32.82008209 21.98957397 32.17922668 21.33221436 31.51895142 C19.30005931 29.47562179 17.27497782 27.42544018 15.25 25.375 C13.8715547 23.9865214 12.49265364 22.5984951 11.11328125 21.2109375 C7.73688106 17.81251303 4.36680712 14.40792746 1 11 C-4.4659721 15.55940306 -9.54153018 20.39523438 -14.56640625 25.43359375 C-15.36352524 26.22975601 -16.16064423 27.02591827 -16.98191833 27.84620667 C-18.65803837 29.52164953 -20.33290958 31.19834258 -22.0065918 32.8762207 C-24.55471081 35.42969444 -27.10812095 37.97778901 -29.66210938 40.52539062 C-31.29719571 42.16113782 -32.93197178 43.79719522 -34.56640625 45.43359375 C-35.32280899 46.18797226 -36.07921173 46.94235077 -36.85853577 47.71958923 C-41.11467397 51.99441999 -45.13562722 56.36725455 -49 61 C-48.34 61 -47.68 61 -47 61 C-45.44921875 62.609375 -45.44921875 62.609375 -43.6875 64.75 C-41.69441586 67.10060645 -39.91352052 69.06918358 -37.5 71 C-35.2582586 72.79339312 -33.60738255 74.51913367 -31.75 76.6875 C-29.07221716 79.80866301 -26.31664805 82.8127851 -23.4375 85.75 C-22.73496094 86.46671875 -22.03242188 87.1834375 -21.30859375 87.921875 C-18.53749319 90.51691477 -18.53749319 90.51691477 -13 94 C-2.11 83.11 8.78 72.22 20 61 C18.19522505 57.3904501 16.88074534 55.64371929 14.0859375 52.890625 C13.32539063 52.13652344 12.56484375 51.38242188 11.78125 50.60546875 C10.9871875 49.82816406 10.193125 49.05085938 9.375 48.25 C8.57320313 47.45722656 7.77140625 46.66445312 6.9453125 45.84765625 C4.96797154 43.89385507 2.98611091 41.94487897 1 40 C-6.11905227 45.80683219 -12.47374812 52.36285444 -18.9375 58.875 C-20.10979204 60.05231638 -21.28231614 61.22940174 -22.45507812 62.40625 C-25.30606982 65.26817489 -28.15389615 68.13321457 -31 71 C-32.98 69.35 -34.96 67.7 -37 66 C-30.98662761 58.8531751 -24.52216002 52.2298662 -17.94970703 45.59960938 C-16.55762902 44.1908225 -15.17095913 42.7766726 -13.78955078 41.35742188 C-11.78565436 39.29908461 -9.76609403 37.25739134 -7.7421875 35.21875 C-7.12544159 34.57933472 -6.50869568 33.93991943 -5.8732605 33.28112793 C-5.29230621 32.70302368 -4.71135193 32.12491943 -4.11279297 31.52929688 C-3.35384232 30.75821594 -3.35384232 30.75821594 -2.57955933 29.97155762 C-1 29 -1 29 1.03421021 29.2028656 C4.11356657 30.451555 6.14962324 32.78372862 8.421875 35.12890625 C8.92672424 35.63800034 9.43157349 36.14709442 9.95172119 36.6716156 C11.55833979 38.2949912 13.15419822 39.928497 14.75 41.5625 C15.83914984 42.6667005 16.92898605 43.77022445 18.01953125 44.87304688 C20.6877076 47.5742529 23.34628291 50.28459063 26 53 C29.8239492 51.42122567 32.23642099 49.00498287 35.13574219 46.09130859 C35.88276649 45.34472237 35.88276649 45.34472237 36.6448822 44.58305359 C38.28366733 42.9428793 39.91526134 41.29574339 41.546875 39.6484375 C42.68415347 38.50742744 43.8218754 37.36685923 44.96002197 36.22671509 C47.94989979 33.22921238 50.93372191 30.22575149 53.9163208 27.2210083 C56.96271321 24.15413288 60.01479703 21.09293306 63.06640625 18.03125 C69.04985434 12.02637217 75.02691663 6.01518768 81 0 C87.85907115 5.61937662 94.03009491 11.90314511 100.27734375 18.1796875 C101.45539258 19.35960447 102.63366466 20.53929858 103.81214905 21.71878052 C106.89347142 24.80389691 109.97177716 27.89200589 113.04943848 30.98077393 C116.19844034 34.14005733 119.35032171 37.29646516 122.50195312 40.453125 C128.6707711 46.63262527 134.83640129 52.8152939 141 59 C139.39464713 62.41059403 137.59481099 64.61792484 134.875 67.25 C134.15054688 67.95640625 133.42609375 68.6628125 132.6796875 69.390625 C131.84824219 70.18726563 131.84824219 70.18726563 131 71 C129.02 69.35 127.04 67.7 125 66 C126.32 64.35 127.64 62.7 129 61 C127.40170377 56.93686138 124.47546962 54.31808538 121.375 51.375 C119.52792799 49.62028159 117.75602961 47.84999775 116 46 C116 45.34 116 44.68 116 44 C115.360625 43.731875 114.72125 43.46375 114.0625 43.1875 C112 42 112 42 111 39 C110.34 39 109.68 39 109 39 C109 38.34 109 37.68 109 37 C108.34 37 107.68 37 107 37 C105.60522461 35.58398437 105.60522461 35.58398437 103.96484375 33.59375 C99.74768627 28.63418911 95.18766693 24.07671635 90.5625 19.5 C89.32209961 18.26636719 89.32209961 18.26636719 88.05664062 17.0078125 C86.04005041 15.00287887 84.02114764 13.00033747 82 11 C76.97018892 15.21544821 72.2436406 19.61246269 67.61181641 24.25878906 C66.91014343 24.95870972 66.20847046 25.65863037 65.48553467 26.37976074 C63.1883711 28.67255558 60.89484594 30.96894971 58.6015625 33.265625 C56.99985111 34.8666623 55.39799134 36.46755117 53.79598999 38.06829834 C50.4507447 41.41207374 47.1073041 44.75764044 43.76513672 48.10449219 C39.47432419 52.40102471 35.17900696 56.69302144 30.88234901 60.98370743 C27.579545 64.28290637 24.27911594 67.58447283 20.97941208 70.88677216 C19.39564863 72.47120383 17.81113886 74.05488986 16.22587967 75.63782501 C14.01876854 77.84240804 11.81486882 80.05015117 9.61181641 82.25878906 C8.62382553 83.24374359 8.62382553 83.24374359 7.61587524 84.24859619 C6.72025879 85.14844238 6.72025879 85.14844238 5.80654907 86.06646729 C5.28560984 86.58778355 4.7646706 87.10909981 4.22794533 87.64621353 C2.88584977 89.00357878 2.88584977 89.00357878 2 91 C1.34 91 0.68 91 0 91 C-0.226875 91.5775 -0.45375 92.155 -0.6875 92.75 C-2.32509684 95.55730887 -4.47264858 96.99107964 -7 99 C-7.495 100.485 -7.495 100.485 -8 102 C-7.443125 102.2475 -6.88625 102.495 -6.3125 102.75 C-4 104 -4 104 1 108 C27.4 81.6 53.8 55.2 81 28 C85.40383305 31.77471404 89.5700123 35.43397786 93.67578125 39.48291016 C94.19534897 39.99430038 94.71491669 40.50569061 95.25022888 41.03257751 C96.94059811 42.69845476 98.62708437 44.36817439 100.3125 46.0390625 C101.18183167 46.90040865 101.18183167 46.90040865 102.06872559 47.77915573 C105.12468405 50.80856466 108.17708207 53.84151463 111.22705078 56.87695312 C113.74980553 59.38628069 116.27966731 61.88810414 118.81591797 64.38378906 C121.88893861 67.40768311 124.94968115 70.44349103 128.00180054 73.4884758 C129.16503769 74.64498401 130.33253821 75.79722017 131.50430298 76.94508743 C133.13454468 78.54390803 134.74851069 80.15756989 136.359375 81.77587891 C137.28202148 82.69043854 138.20466797 83.60499817 139.15527344 84.54727173 C141 87 141 87 141.12019348 88.97010803 C139.45139104 91.99412909 137.14541436 94.28810911 134.7175293 96.70239258 C134.16785492 97.2605365 133.61818054 97.81868042 133.05184937 98.39373779 C131.23374793 100.23522795 129.40466362 102.06531546 127.57421875 103.89453125 C126.30697965 105.16886899 125.04004132 106.44350588 123.77339172 107.71842957 C121.11785644 110.38741271 118.45645312 113.05037949 115.79125977 115.7097168 C112.37100775 119.12406199 108.96938433 122.55632807 105.57234478 125.99374866 C102.96190665 128.62998584 100.34013651 131.25471861 97.71494484 133.87625694 C96.45545303 135.13744623 95.19995991 136.40264164 93.94852257 137.6718235 C92.20086209 139.44152653 90.43816985 141.19473872 88.6706543 142.94458008 C88.15361435 143.47488327 87.6365744 144.00518646 87.10386658 144.55155945 C83.58028332 147.99348385 83.58028332 147.99348385 80.87477112 148.02386475 C78.6531143 146.81055605 77.11594845 145.47590441 75.33300781 143.67358398 C74.63258362 142.9729332 73.93215942 142.27228241 73.21051025 141.55039978 C72.46557312 140.78997879 71.72063599 140.0295578 70.953125 139.24609375 C70.18192322 138.47064713 69.41072144 137.6952005 68.6161499 136.89625549 C66.1536429 134.41695059 63.70176866 131.92742008 61.25 129.4375 C59.58272091 127.7551756 57.91476031 126.07352633 56.24609375 124.39257812 C52.15612098 120.26952125 48.07483079 116.13801942 44 112 C45.65 110.02 47.3 108.04 49 106 C56.11905227 111.80683219 62.47374812 118.36285444 68.9375 124.875 C70.10979204 126.05231638 71.28231614 127.22940174 72.45507812 128.40625 C75.30606982 131.26817489 78.15389615 134.13321457 81 137 C86.96118297 132.06002739 92.41486302 126.71470138 97.87109375 121.2265625 C98.793423 120.3028183 99.71575226 119.3790741 100.66603088 118.42733765 C103.09633814 115.99324569 105.52362496 113.55616403 107.95025635 111.1184082 C110.43569364 108.6226689 112.92402932 106.12982292 115.41210938 103.63671875 C120.27755096 98.7606114 125.13980198 93.88133369 130 89 C125.97251947 84.16701194 121.75620587 79.61889996 117.2890625 75.19140625 C116.67606293 74.57982162 116.06306335 73.968237 115.43148804 73.33811951 C113.49835436 71.41052441 111.56175013 69.48646072 109.625 67.5625 C108.30315301 66.24567596 106.98153628 64.92862074 105.66015625 63.61132812 C102.44275701 60.40487627 99.22224319 57.20158371 96 54 C95.54625 54.495 95.0925 54.99 94.625 55.5 C93 57 93 57 91 57 C91 57.66 91 58.32 91 59 C89.4609375 60.48046875 89.4609375 60.48046875 87.375 62.1875 C83.91212733 65.1100663 81.02489092 68.15830902 78.2265625 71.71484375 C77.82179688 72.13894531 77.41703125 72.56304687 77 73 C76.34 73 75.68 73 75 73 C75 73.66 75 74.32 75 75 C73.37316753 76.7285095 71.71324691 78.36000356 70 80 C68.55984043 81.4348355 67.12244899 82.8724535 65.6875 84.3125 C64.45833333 85.54166667 63.22916667 86.77083333 62 88 C67.82628904 95.15801225 74.4382985 101.52591766 81 108 C85.55245571 104.30478274 89.70918056 100.33217493 93.79296875 96.12890625 C94.30981232 95.59945404 94.82665588 95.07000183 95.35916138 94.52450562 C97.52312209 92.30628722 99.68528433 90.0868272 101.82885742 87.84887695 C103.40978958 86.2016484 105.0059308 84.5705457 106.60546875 82.94140625 C107.08783493 82.43009659 107.57020111 81.91878693 108.06718445 81.39198303 C111.41681421 78.01596227 111.41681421 78.01596227 114.1496582 77.94116211 C116 79 116 79 119 83 C106.79 95.21 94.58 107.42 82 120 C77.85561068 116.4476663 73.96953969 113.09346755 70.16015625 109.2578125 C69.32548828 108.41992188 68.49082031 107.58203125 67.63085938 106.71875 C66.35952148 105.43484375 66.35952148 105.43484375 65.0625 104.125 C64.18787109 103.24585938 63.31324219 102.36671875 62.41210938 101.4609375 C60.27242952 99.3095654 58.13513403 97.15588208 56 95 C50.19062133 99.77057235 44.92990606 105.00201432 39.67794228 110.36915398 C37.61929333 112.47032653 35.5509044 114.56180211 33.48313427 116.65399265 C29.64652036 120.53617419 25.8141397 124.4223371 21.99780273 128.32446289 C19.32911748 131.05238805 16.64850653 133.76807051 13.95949364 136.47595406 C12.93945558 137.5077489 11.92397281 138.54406768 10.91317177 139.58491325 C9.50618411 141.03271489 8.08221096 142.46395182 6.6574707 143.89428711 C5.85251663 144.71336044 5.04756256 145.53243378 4.21821594 146.37632751 C2 148 2 148 0.06530762 148.08676147 C-3.00458783 146.47138754 -5.28040154 144.15316536 -7.70239258 141.7175293 C-8.2605365 141.16785492 -8.81868042 140.61818054 -9.39373779 140.05184937 C-11.23522795 138.23374793 -13.06531546 136.40466362 -14.89453125 134.57421875 C-16.16886899 133.30697965 -17.44350588 132.04004132 -18.71842957 130.77339172 C-21.38741271 128.11785644 -24.05037949 125.45645312 -26.7097168 122.79125977 C-30.12406199 119.37100775 -33.55632807 115.96938433 -36.99374866 112.57234478 C-39.62998584 109.96190665 -42.25471861 107.34013651 -44.87625694 104.71494484 C-46.13744623 103.45545303 -47.40264164 102.19995991 -48.6718235 100.94852257 C-50.44152653 99.20086209 -52.19473872 97.43816985 -53.94458008 95.6706543 C-54.47488327 95.15361435 -55.00518646 94.6365744 -55.55155945 94.10386658 C-56.98323059 92.63822937 -56.98323059 92.63822937 -59 90 C-58.85023919 86.64335749 -57.4289575 85.04124003 -55.0625 82.75 C-54.27552734 81.96882813 -54.27552734 81.96882813 -53.47265625 81.171875 C-52 80 -52 80 -50 80 C-50 79.34 -50 78.68 -50 78 C-47.11424181 78.39803561 -46.17810487 78.79009069 -44.25 81.0625 C-43.63125 82.0215625 -43.63125 82.0215625 -43 83 C-44.65 84.98 -46.3 86.96 -48 89 C-32.16 104.84 -16.32 120.68 0 137 C5.62982076 132.20545355 5.62982076 132.20545355 10.95481873 127.16543579 C11.65440201 126.46722717 12.35398529 125.76901855 13.07476807 125.0496521 C13.81636169 124.3044632 14.55795532 123.55927429 15.32202148 122.79150391 C16.12283646 121.99083496 16.92365143 121.19016602 17.74873352 120.36523438 C20.37523304 117.73804239 22.99818016 115.10733417 25.62109375 112.4765625 C27.44933061 110.6464591 29.27778947 108.81657745 31.10646057 106.98690796 C35.4146616 102.67528872 39.72063013 98.36145175 44.02550608 94.04651296 C48.93047541 89.13032954 53.83831671 84.21701744 58.74639022 79.30393338 C68.83410455 69.20579313 78.91824333 59.10408808 89 49 C87.28418916 44.36731074 85.34849752 43.62374793 81 40 C54.6 66.4 28.2 92.8 1 120 C-3.43012135 116.20275313 -7.5686076 112.55472907 -11.65991211 108.45361328 C-12.17787354 107.93579788 -12.69583496 107.41798248 -13.22949219 106.88447571 C-14.91449522 105.19878466 -16.5959437 103.50959669 -18.27734375 101.8203125 C-19.45539258 100.64039553 -20.63366466 99.46070142 -21.81214905 98.28121948 C-24.89347142 95.19610309 -27.97177716 92.10799411 -31.04943848 89.01922607 C-34.19844034 85.85994267 -37.35032171 82.70353484 -40.50195312 79.546875 C-46.6707711 73.36737473 -52.83640129 67.1847061 -59 61 C-57.39140496 56.98428745 -54.56359635 54.29520386 -51.54052734 51.31347656 C-50.98428177 50.75693893 -50.42803619 50.20040131 -49.85493469 49.6269989 C-48.01997095 47.79342558 -46.17803069 45.96703328 -44.3359375 44.140625 C-43.06040611 42.86882475 -41.78531633 41.59658147 -40.51065063 40.32391357 C-37.15804605 36.97893742 -33.79947827 33.64001149 -30.43963623 30.30230713 C-27.01082544 26.89397169 -23.58768427 23.47995255 -20.1640625 20.06640625 C-13.44824728 13.37202703 -6.72611906 6.68402534 0 0 Z " fill="#E1E1E1" transform="translate(209,176)"/>
<path d="M0 0 C0.66 0.66 1.32 1.32 2 2 C-11.53 15.53 -25.06 29.06 -39 43 C-39.66 42.34 -40.32 41.68 -41 41 C-27.47 27.47 -13.94 13.94 0 0 Z " fill="#B0B0B0" transform="translate(254,240)"/>
<path d="M0 0 C0.66 0.33 1.32 0.66 2 1 C-1.3 4.3 -4.6 7.6 -8 11 C-8.33 10.01 -8.66 9.02 -9 8 C-7.87811441 6.85111717 -6.75238316 5.70598863 -5.625 4.5625 C-4.99851563 3.92441406 -4.37203125 3.28632813 -3.7265625 2.62890625 C-2 1 -2 1 0 0 Z " fill="#ACACAC" transform="translate(159,255)"/>
<path d="M0 0 C0.66 0.66 1.32 1.32 2 2 C0.02 3.98 -1.96 5.96 -4 8 C-4.99 7.67 -5.98 7.34 -7 7 C-4.69 4.69 -2.38 2.38 0 0 Z " fill="#9A9A9A" transform="translate(315,260)"/>
</svg>
